<?xml version="1.0" encoding="UTF-8"?>
<svg xmlns="http://www.w3.org/2000/svg" xmlns:xlink="http://www.w3.org/1999/xlink" width="117.75pt" height="32.249999pt" viewBox="0 0 117.75 32.249999" version="1.2">
<defs>
<clipPath id="clip1">
  <path d="M 56.492188 29.890625 L 63.398438 29.890625 L 63.398438 31.515625 L 56.492188 31.515625 Z M 56.492188 29.890625 "/>
</clipPath>
<clipPath id="clip2">
  <path d="M 78.34375 13 L 94.152344 13 L 94.152344 18 L 78.34375 18 Z M 78.34375 13 "/>
</clipPath>
<clipPath id="clip3">
  <path d="M 23.695312 10 L 41 10 L 41 20 L 23.695312 20 Z M 23.695312 10 "/>
</clipPath>
<clipPath id="clip4">
  <path d="M 23.695312 0 L 32 0 L 32 11 L 23.695312 11 Z M 23.695312 0 "/>
</clipPath>
<clipPath id="clip5">
  <path d="M 86.382812 0 L 94.152344 0 L 94.152344 13.527344 L 86.382812 13.527344 Z M 86.382812 0 "/>
</clipPath>
<clipPath id="clip6">
  <path d="M 51 26 L 58 26 L 58 31.515625 L 51 31.515625 Z M 51 26 "/>
</clipPath>
<clipPath id="clip7">
  <path d="M 57.226562 29.5625 L 64.132812 29.5625 L 64.132812 31.515625 L 57.226562 31.515625 Z M 57.226562 29.5625 "/>
</clipPath>
<clipPath id="clip8">
  <path d="M 79.078125 12.636719 L 94.886719 12.636719 L 94.886719 17.714844 L 79.078125 17.714844 Z M 79.078125 12.636719 "/>
</clipPath>
<clipPath id="clip9">
  <path d="M 24.429688 10 L 41 10 L 41 19 L 24.429688 19 Z M 24.429688 10 "/>
</clipPath>
<clipPath id="clip10">
  <path d="M 24.429688 0 L 32 0 L 32 11 L 24.429688 11 Z M 24.429688 0 "/>
</clipPath>
<clipPath id="clip11">
  <path d="M 87.117188 0 L 94.886719 0 L 94.886719 13.199219 L 87.117188 13.199219 Z M 87.117188 0 "/>
</clipPath>
</defs>
<g id="surface1">
<g clip-path="url(#clip1)" clip-rule="nonzero">
<path style=" stroke:none;fill-rule:nonzero;fill:rgb(1.959229%,1.959229%,1.959229%);fill-opacity:1;" d="M 60.117188 31.988281 C 59.933594 31.988281 59.746094 31.960938 59.554688 31.898438 C 59.078125 31.738281 58.585938 31.40625 58.109375 31.085938 C 57.792969 30.875 57.496094 30.675781 57.21875 30.53125 C 57.082031 30.460938 56.917969 30.386719 56.734375 30.308594 C 56.625 30.265625 56.574219 30.140625 56.617188 30.035156 C 56.660156 29.925781 56.785156 29.875 56.894531 29.917969 C 57.089844 30 57.265625 30.078125 57.414062 30.160156 C 57.710938 30.3125 58.035156 30.527344 58.34375 30.734375 C 58.796875 31.039062 59.269531 31.355469 59.6875 31.496094 C 60.355469 31.714844 60.992188 31.363281 61.664062 30.992188 C 62.113281 30.746094 62.574219 30.492188 63.082031 30.382812 C 63.195312 30.359375 63.308594 30.433594 63.332031 30.546875 C 63.355469 30.660156 63.285156 30.773438 63.167969 30.796875 C 62.726562 30.890625 62.289062 31.132812 61.871094 31.363281 C 61.3125 31.671875 60.738281 31.988281 60.117188 31.988281 "/>
</g>
<path style=" stroke:none;fill-rule:nonzero;fill:rgb(1.959229%,1.959229%,1.959229%);fill-opacity:1;" d="M 63.617188 30.910156 C 63.417969 30.910156 63.234375 30.867188 63.042969 30.785156 C 62.800781 30.679688 62.558594 30.515625 62.265625 30.300781 C 60.578125 29.039062 58.679688 27.902344 57.007812 26.898438 C 56.90625 26.835938 56.875 26.707031 56.933594 26.605469 C 56.992188 26.507812 57.125 26.472656 57.222656 26.535156 C 58.90625 27.542969 60.8125 28.6875 62.519531 29.960938 C 62.75 30.132812 62.992188 30.304688 63.207031 30.398438 C 63.535156 30.539062 63.84375 30.546875 64.535156 30.203125 C 65.351562 29.789062 66.21875 29.230469 66.847656 28.703125 C 66.9375 28.628906 67.070312 28.640625 67.144531 28.730469 C 67.21875 28.816406 67.207031 28.953125 67.117188 29.027344 C 66.464844 29.574219 65.570312 30.15625 64.722656 30.582031 C 64.277344 30.804688 63.933594 30.910156 63.617188 30.910156 "/>
<path style=" stroke:none;fill-rule:nonzero;fill:rgb(1.959229%,1.959229%,1.959229%);fill-opacity:1;" d="M 67.980469 29.222656 C 67.621094 29.222656 67.261719 29.171875 66.921875 29.066406 C 66.640625 28.980469 66.386719 28.863281 66.171875 28.710938 C 65.464844 28.210938 64.808594 27.457031 64.113281 26.660156 C 63.027344 25.421875 61.90625 24.136719 60.585938 23.84375 C 60.472656 23.816406 60.398438 23.703125 60.425781 23.589844 C 60.449219 23.476562 60.5625 23.402344 60.675781 23.429688 C 62.132812 23.753906 63.300781 25.089844 64.429688 26.382812 C 65.109375 27.160156 65.75 27.894531 66.414062 28.363281 C 66.59375 28.488281 66.804688 28.589844 67.042969 28.664062 C 67.878906 28.921875 68.882812 28.804688 69.546875 28.371094 C 69.644531 28.308594 69.773438 28.335938 69.839844 28.433594 C 69.902344 28.53125 69.875 28.664062 69.777344 28.726562 C 69.277344 29.054688 68.632812 29.222656 67.980469 29.222656 "/>
<path style=" stroke:none;fill-rule:nonzero;fill:rgb(1.959229%,1.959229%,1.959229%);fill-opacity:1;" d="M 69.644531 28.796875 C 69.609375 28.796875 69.570312 28.789062 69.535156 28.765625 C 69.4375 28.707031 69.402344 28.578125 69.464844 28.476562 C 69.464844 28.472656 69.46875 28.464844 69.46875 28.460938 C 70.078125 27.160156 70.113281 27.082031 69.300781 26.011719 L 69.21875 25.898438 C 68.605469 25.101562 67.917969 24.34375 67.265625 23.644531 C 67.171875 23.542969 67.066406 23.433594 66.957031 23.320312 C 66.050781 22.371094 64.8125 21.070312 64.910156 19.902344 C 64.921875 19.785156 65.023438 19.699219 65.140625 19.707031 C 65.253906 19.71875 65.34375 19.820312 65.332031 19.9375 C 65.25 20.914062 66.460938 22.1875 67.261719 23.027344 C 67.375 23.144531 67.480469 23.253906 67.574219 23.355469 C 68.234375 24.0625 68.929688 24.828125 69.554688 25.644531 L 69.636719 25.753906 C 70.578125 26.992188 70.496094 27.257812 69.851562 28.640625 C 69.847656 28.652344 69.839844 28.675781 69.828125 28.695312 C 69.785156 28.761719 69.71875 28.796875 69.644531 28.796875 "/>
<path style=" stroke:none;fill-rule:nonzero;fill:rgb(1.959229%,1.959229%,1.959229%);fill-opacity:1;" d="M 72.4375 24.191406 C 72.410156 24.191406 72.386719 24.1875 72.359375 24.175781 C 72.183594 24.109375 72.015625 24.03125 71.847656 23.9375 C 71.183594 23.585938 70.546875 23.078125 69.929688 22.585938 C 69.367188 22.132812 68.835938 21.707031 68.335938 21.445312 C 68.25 21.402344 68.136719 21.339844 68.003906 21.265625 C 67.320312 20.886719 65.894531 20.097656 65.128906 20.128906 C 65.007812 20.140625 64.914062 20.042969 64.910156 19.929688 C 64.90625 19.8125 64.996094 19.710938 65.113281 19.707031 C 65.992188 19.667969 67.433594 20.464844 68.207031 20.894531 C 68.339844 20.964844 68.449219 21.027344 68.53125 21.070312 C 69.066406 21.351562 69.613281 21.789062 70.195312 22.253906 C 70.792969 22.734375 71.414062 23.230469 72.046875 23.566406 C 72.203125 23.648438 72.355469 23.71875 72.511719 23.78125 C 72.621094 23.824219 72.675781 23.945312 72.632812 24.054688 C 72.601562 24.140625 72.523438 24.191406 72.4375 24.191406 "/>
<path style=" stroke:none;fill-rule:nonzero;fill:rgb(1.959229%,1.959229%,1.959229%);fill-opacity:1;" d="M 69.386719 25.984375 C 69.3125 25.984375 69.246094 25.945312 69.203125 25.882812 C 69.144531 25.78125 69.175781 25.652344 69.277344 25.589844 C 69.613281 25.390625 69.984375 25.128906 70.382812 24.820312 C 70.839844 24.457031 71.332031 24.035156 71.800781 23.597656 C 71.886719 23.519531 72.023438 23.519531 72.101562 23.601562 C 72.183594 23.6875 72.183594 23.8125 72.101562 23.894531 C 72.101562 23.898438 72.09375 23.90625 72.089844 23.90625 C 71.613281 24.355469 71.113281 24.785156 70.640625 25.152344 C 70.230469 25.472656 69.84375 25.742188 69.496094 25.953125 C 69.460938 25.972656 69.421875 25.984375 69.386719 25.984375 "/>
<path style=" stroke:none;fill-rule:nonzero;fill:rgb(1.959229%,1.959229%,1.959229%);fill-opacity:1;" d="M 71.507812 25.382812 C 71.136719 25.382812 70.792969 25.324219 70.433594 25.183594 C 70.324219 25.140625 70.273438 25.019531 70.3125 24.910156 C 70.355469 24.800781 70.480469 24.746094 70.589844 24.789062 C 71.28125 25.058594 71.929688 24.984375 72.957031 24.738281 C 73.183594 24.683594 73.445312 24.65625 73.71875 24.625 C 74.207031 24.574219 74.710938 24.523438 74.992188 24.320312 C 75.492188 23.964844 75.644531 23.164062 75.449219 21.941406 C 75.398438 21.613281 75.320312 21.253906 75.214844 20.851562 C 75.1875 20.738281 75.253906 20.621094 75.367188 20.589844 C 75.480469 20.5625 75.59375 20.628906 75.625 20.742188 C 75.734375 21.160156 75.8125 21.53125 75.867188 21.875 C 76.089844 23.269531 75.878906 24.207031 75.238281 24.664062 C 74.863281 24.933594 74.304688 24.992188 73.765625 25.046875 C 73.503906 25.074219 73.253906 25.101562 73.054688 25.148438 C 72.457031 25.292969 71.964844 25.382812 71.507812 25.382812 "/>
<path style=" stroke:none;fill-rule:nonzero;fill:rgb(1.959229%,1.959229%,1.959229%);fill-opacity:1;" d="M 75.421875 21.007812 C 75.382812 21.007812 75.34375 20.996094 75.308594 20.976562 L 74.976562 20.765625 C 74.082031 20.199219 73.238281 19.660156 72.523438 19.070312 C 68.464844 15.726562 64.152344 12.949219 60.46875 10.671875 C 59.445312 10.042969 58.550781 9.734375 57.527344 9.464844 C 57.21875 9.382812 56.859375 9.230469 56.480469 9.074219 C 56.140625 8.929688 55.785156 8.777344 55.453125 8.675781 C 55.34375 8.640625 55.28125 8.523438 55.3125 8.410156 C 55.347656 8.300781 55.46875 8.238281 55.578125 8.273438 C 55.929688 8.378906 56.292969 8.535156 56.644531 8.683594 C 57.011719 8.835938 57.355469 8.980469 57.636719 9.054688 C 58.695312 9.332031 59.621094 9.652344 60.691406 10.3125 C 64.386719 12.597656 68.714844 15.382812 72.792969 18.742188 C 73.488281 19.316406 74.320312 19.847656 75.203125 20.410156 L 75.535156 20.617188 C 75.632812 20.679688 75.660156 20.8125 75.597656 20.910156 C 75.558594 20.972656 75.488281 21.007812 75.421875 21.007812 "/>
<path style=" stroke:none;fill-rule:nonzero;fill:rgb(1.959229%,1.959229%,1.959229%);fill-opacity:1;" d="M 75.660156 22.121094 C 75.617188 22.121094 75.574219 22.109375 75.539062 22.082031 C 75.441406 22.015625 75.417969 21.882812 75.488281 21.785156 C 75.648438 21.5625 75.835938 21.351562 76.0625 21.144531 C 76.296875 20.925781 76.554688 20.730469 76.800781 20.542969 C 77.210938 20.226562 77.59375 19.933594 77.898438 19.550781 C 78.285156 19.0625 78.367188 18.347656 78.394531 17.773438 C 78.410156 17.484375 78.410156 17.183594 78.410156 16.890625 C 78.414062 16.238281 78.417969 15.566406 78.5625 15.003906 C 78.59375 14.890625 78.710938 14.824219 78.820312 14.851562 C 78.933594 14.882812 79.003906 15 78.972656 15.113281 C 78.839844 15.621094 78.835938 16.238281 78.835938 16.890625 C 78.832031 17.1875 78.832031 17.496094 78.816406 17.796875 C 78.785156 18.429688 78.691406 19.230469 78.230469 19.8125 C 77.894531 20.234375 77.46875 20.5625 77.058594 20.878906 C 76.820312 21.0625 76.570312 21.253906 76.347656 21.457031 C 76.140625 21.644531 75.972656 21.832031 75.832031 22.03125 C 75.792969 22.089844 75.726562 22.121094 75.660156 22.121094 "/>
<path style=" stroke:none;fill-rule:nonzero;fill:rgb(1.959229%,1.959229%,1.959229%);fill-opacity:1;" d="M 76.1875 5.488281 C 76.097656 5.488281 76.015625 5.433594 75.984375 5.34375 C 75.949219 5.230469 76.011719 5.113281 76.121094 5.078125 C 76.757812 4.875 77.3125 4.671875 77.820312 4.453125 C 81.097656 3.058594 84.101562 1.289062 86.609375 -0.253906 C 86.707031 -0.316406 86.839844 -0.285156 86.898438 -0.1875 C 86.960938 -0.0859375 86.929688 0.0429688 86.832031 0.105469 C 84.308594 1.660156 81.289062 3.4375 77.984375 4.84375 C 77.464844 5.066406 76.898438 5.273438 76.25 5.480469 C 76.230469 5.488281 76.207031 5.488281 76.1875 5.488281 "/>
<g clip-path="url(#clip2)" clip-rule="nonzero">
<path style=" stroke:none;fill-rule:nonzero;fill:rgb(1.959229%,1.959229%,1.959229%);fill-opacity:1;" d="M 78.605469 17.996094 C 78.535156 17.996094 78.464844 17.960938 78.425781 17.894531 C 78.363281 17.792969 78.398438 17.664062 78.496094 17.601562 C 79.019531 17.292969 79.566406 17.035156 79.925781 16.863281 L 79.976562 16.839844 C 80.605469 16.542969 81.261719 16.40625 81.894531 16.273438 C 82.128906 16.226562 82.375 16.175781 82.613281 16.117188 C 83.144531 15.992188 83.679688 15.863281 84.214844 15.738281 C 87.417969 14.976562 90.730469 14.191406 93.871094 13.09375 C 93.980469 13.054688 94.101562 13.113281 94.140625 13.222656 C 94.179688 13.335938 94.121094 13.453125 94.011719 13.492188 C 90.851562 14.597656 87.527344 15.386719 84.3125 16.148438 C 83.777344 16.277344 83.242188 16.402344 82.710938 16.53125 C 82.464844 16.589844 82.21875 16.640625 81.980469 16.691406 C 81.34375 16.820312 80.742188 16.945312 80.15625 17.222656 L 80.105469 17.246094 C 79.753906 17.414062 79.21875 17.667969 78.714844 17.96875 C 78.679688 17.988281 78.644531 17.996094 78.605469 17.996094 "/>
</g>
<path style=" stroke:none;fill-rule:nonzero;fill:rgb(1.959229%,1.959229%,1.959229%);fill-opacity:1;" d="M 72.605469 4.996094 C 72.539062 4.996094 72.476562 4.96875 72.433594 4.914062 C 72.367188 4.820312 72.382812 4.6875 72.476562 4.617188 C 72.871094 4.320312 74.113281 3.292969 73.589844 2.527344 C 73.476562 2.367188 73.261719 2.277344 72.914062 2.25 C 72.796875 2.238281 72.710938 2.136719 72.71875 2.019531 C 72.726562 1.90625 72.832031 1.816406 72.945312 1.828125 C 73.425781 1.867188 73.746094 2.015625 73.9375 2.285156 C 74.441406 3.023438 74.003906 3.996094 72.730469 4.953125 C 72.695312 4.984375 72.648438 4.996094 72.605469 4.996094 "/>
<path style=" stroke:none;fill-rule:nonzero;fill:rgb(1.959229%,1.959229%,1.959229%);fill-opacity:1;" d="M 46.609375 12.9375 C 45.777344 12.9375 44.863281 12.78125 44.285156 12.304688 C 44.15625 12.199219 44.046875 12.082031 43.957031 11.953125 C 43.894531 11.855469 43.917969 11.726562 44.011719 11.660156 C 44.109375 11.59375 44.242188 11.617188 44.308594 11.714844 C 44.375 11.808594 44.457031 11.898438 44.554688 11.980469 C 45.285156 12.578125 46.855469 12.589844 47.738281 12.40625 C 49.039062 12.136719 49.945312 11.539062 51.082031 10.726562 C 52.246094 9.890625 53.628906 9.117188 55.425781 8.28125 C 55.535156 8.234375 55.660156 8.277344 55.707031 8.386719 C 55.757812 8.492188 55.710938 8.617188 55.605469 8.667969 C 53.832031 9.488281 52.46875 10.253906 51.328125 11.074219 C 50.148438 11.914062 49.207031 12.53125 47.824219 12.820312 C 47.492188 12.890625 47.0625 12.9375 46.609375 12.9375 "/>
<path style=" stroke:none;fill-rule:nonzero;fill:rgb(1.959229%,1.959229%,1.959229%);fill-opacity:1;" d="M 76.1875 5.488281 C 76.183594 5.488281 76.179688 5.488281 76.175781 5.488281 C 75.179688 5.441406 74.257812 5.335938 73.363281 5.167969 C 73.117188 5.121094 72.851562 5.0625 72.554688 4.992188 C 72.4375 4.964844 72.316406 4.933594 72.195312 4.90625 C 71.742188 4.796875 71.277344 4.6875 70.808594 4.613281 C 67.613281 4.105469 64.285156 3.765625 60.917969 3.605469 C 60.324219 3.574219 59.71875 3.515625 59.136719 3.457031 L 59.011719 3.445312 C 58.179688 3.363281 57.3125 3.28125 56.488281 3.277344 C 55.59375 3.28125 54.703125 3.511719 53.9375 3.730469 C 53.828125 3.761719 53.710938 3.699219 53.675781 3.585938 C 53.644531 3.472656 53.710938 3.355469 53.824219 3.324219 C 54.613281 3.097656 55.539062 2.859375 56.484375 2.855469 C 57.335938 2.855469 58.210938 2.941406 59.054688 3.023438 L 59.179688 3.035156 C 59.757812 3.09375 60.355469 3.152344 60.9375 3.183594 C 64.320312 3.34375 67.664062 3.683594 70.875 4.195312 C 71.359375 4.269531 71.832031 4.382812 72.292969 4.492188 C 72.414062 4.523438 72.53125 4.550781 72.652344 4.578125 C 72.945312 4.648438 73.203125 4.707031 73.441406 4.75 C 74.316406 4.914062 75.21875 5.019531 76.199219 5.066406 C 76.316406 5.074219 76.40625 5.171875 76.398438 5.289062 C 76.394531 5.402344 76.300781 5.488281 76.1875 5.488281 "/>
<path style=" stroke:none;fill-rule:nonzero;fill:rgb(1.959229%,1.959229%,1.959229%);fill-opacity:1;" d="M 59.046875 3.449219 C 58.964844 3.449219 58.890625 3.402344 58.855469 3.324219 C 58.804688 3.214844 58.855469 3.089844 58.960938 3.042969 C 59.558594 2.777344 60.066406 2.617188 60.5625 2.53125 C 61.664062 2.34375 62.828125 2.371094 63.957031 2.398438 C 64.347656 2.410156 64.75 2.417969 65.136719 2.417969 C 65.476562 2.417969 65.898438 2.433594 66.386719 2.453125 C 68.296875 2.523438 71.191406 2.632812 72.839844 1.847656 C 72.945312 1.796875 73.070312 1.839844 73.121094 1.945312 C 73.171875 2.050781 73.125 2.179688 73.019531 2.230469 C 71.28125 3.0625 68.324219 2.949219 66.367188 2.875 C 65.886719 2.855469 65.472656 2.839844 65.136719 2.839844 C 64.746094 2.839844 64.339844 2.832031 63.945312 2.820312 C 62.839844 2.796875 61.691406 2.769531 60.632812 2.949219 C 60.167969 3.027344 59.703125 3.175781 59.132812 3.429688 C 59.105469 3.441406 59.074219 3.449219 59.046875 3.449219 "/>
<path style=" stroke:none;fill-rule:nonzero;fill:rgb(1.959229%,1.959229%,1.959229%);fill-opacity:1;" d="M 44.488281 23.789062 C 44.449219 23.789062 44.40625 23.777344 44.371094 23.753906 C 43.933594 23.460938 43.515625 23.113281 43.113281 22.78125 C 42.976562 22.667969 42.84375 22.558594 42.707031 22.449219 C 42.628906 22.382812 42.554688 22.324219 42.476562 22.261719 C 42.382812 22.191406 42.367188 22.058594 42.4375 21.964844 C 42.511719 21.875 42.644531 21.859375 42.734375 21.929688 C 42.816406 21.992188 42.898438 22.054688 42.976562 22.121094 C 43.109375 22.230469 43.246094 22.339844 43.382812 22.453125 C 43.777344 22.78125 44.1875 23.121094 44.609375 23.402344 C 44.703125 23.46875 44.730469 23.601562 44.664062 23.695312 C 44.625 23.757812 44.558594 23.789062 44.488281 23.789062 "/>
<path style=" stroke:none;fill-rule:nonzero;fill:rgb(1.959229%,1.959229%,1.959229%);fill-opacity:1;" d="M 42.179688 23.261719 C 42.160156 23.261719 42.140625 23.261719 42.125 23.253906 C 40.347656 22.773438 40.144531 21.566406 39.929688 20.285156 C 39.867188 19.910156 39.804688 19.527344 39.699219 19.144531 C 39.636719 18.902344 39.558594 18.679688 39.464844 18.472656 C 39.417969 18.367188 39.464844 18.242188 39.574219 18.195312 C 39.679688 18.148438 39.804688 18.195312 39.851562 18.300781 C 39.953125 18.527344 40.039062 18.773438 40.109375 19.03125 C 40.21875 19.433594 40.285156 19.832031 40.347656 20.214844 C 40.558594 21.457031 40.722656 22.4375 42.234375 22.847656 C 42.347656 22.878906 42.414062 22.992188 42.382812 23.105469 C 42.359375 23.199219 42.273438 23.261719 42.179688 23.261719 "/>
<path style=" stroke:none;fill-rule:nonzero;fill:rgb(1.959229%,1.959229%,1.959229%);fill-opacity:1;" d="M 42.496094 22.96875 C 42.492188 22.96875 42.492188 22.96875 42.492188 22.96875 C 42.375 22.964844 42.28125 22.867188 42.285156 22.75 C 42.316406 21.414062 41.898438 20.035156 41.191406 19.148438 C 40.808594 18.671875 40.203125 18.285156 39.773438 18.566406 C 39.726562 18.59375 39.6875 18.628906 39.648438 18.671875 C 39.570312 18.757812 39.433594 18.761719 39.347656 18.683594 C 39.261719 18.605469 39.257812 18.472656 39.335938 18.386719 C 39.402344 18.3125 39.472656 18.257812 39.546875 18.207031 C 40.195312 17.785156 41.007812 18.242188 41.519531 18.886719 C 42.285156 19.84375 42.742188 21.328125 42.707031 22.761719 C 42.703125 22.875 42.609375 22.96875 42.496094 22.96875 "/>
<path style=" stroke:none;fill-rule:nonzero;fill:rgb(1.959229%,1.959229%,1.959229%);fill-opacity:1;" d="M 44.132812 12.042969 C 44.113281 12.042969 44.09375 12.042969 44.070312 12.035156 C 43.960938 12 43.894531 11.882812 43.929688 11.769531 C 43.941406 11.734375 43.957031 11.695312 43.976562 11.65625 C 44.199219 11.203125 44.527344 11.089844 44.847656 10.976562 C 44.980469 10.929688 45.121094 10.882812 45.253906 10.804688 C 45.878906 10.445312 46.453125 9.9375 47.003906 9.449219 C 47.296875 9.1875 47.601562 8.917969 47.914062 8.667969 C 48.863281 7.910156 49.761719 7.042969 50.628906 6.207031 C 51.039062 5.808594 51.460938 5.402344 51.882812 5.007812 C 51.886719 5.007812 51.894531 5 51.902344 4.992188 C 51.902344 4.992188 51.910156 4.984375 51.914062 4.980469 C 52.542969 4.402344 53.140625 3.871094 53.746094 3.367188 C 53.832031 3.289062 53.96875 3.300781 54.042969 3.390625 C 54.117188 3.480469 54.105469 3.613281 54.015625 3.6875 C 53.417969 4.191406 52.824219 4.714844 52.199219 5.292969 C 52.199219 5.292969 52.191406 5.300781 52.183594 5.308594 C 52.179688 5.3125 52.171875 5.316406 52.171875 5.320312 C 51.75 5.707031 51.328125 6.117188 50.921875 6.507812 C 50.046875 7.355469 49.144531 8.230469 48.179688 9 C 47.875 9.242188 47.574219 9.507812 47.285156 9.765625 C 46.714844 10.269531 46.128906 10.792969 45.464844 11.171875 C 45.296875 11.269531 45.132812 11.324219 44.988281 11.375 C 44.707031 11.472656 44.503906 11.546875 44.355469 11.84375 C 44.347656 11.863281 44.339844 11.878906 44.335938 11.894531 C 44.308594 11.988281 44.222656 12.042969 44.132812 12.042969 "/>
<g clip-path="url(#clip3)" clip-rule="nonzero">
<path style=" stroke:none;fill-rule:nonzero;fill:rgb(1.959229%,1.959229%,1.959229%);fill-opacity:1;" d="M 39.902344 19.296875 C 39.828125 19.296875 39.757812 19.261719 39.71875 19.191406 C 39.621094 19.015625 39.492188 18.839844 39.335938 18.671875 C 38.699219 17.992188 37.71875 17.519531 36.855469 17.097656 C 36.722656 17.035156 36.59375 16.972656 36.46875 16.910156 C 34.175781 15.773438 31.890625 14.539062 29.75 13.375 C 27.914062 12.375 25.957031 11.609375 24.0625 10.871094 L 23.917969 10.816406 C 23.808594 10.773438 23.753906 10.652344 23.796875 10.542969 C 23.839844 10.433594 23.960938 10.378906 24.070312 10.421875 L 24.214844 10.476562 C 26.121094 11.222656 28.09375 11.988281 29.953125 13.003906 C 32.089844 14.167969 34.371094 15.398438 36.65625 16.53125 C 36.78125 16.59375 36.910156 16.65625 37.039062 16.71875 C 37.9375 17.152344 38.957031 17.644531 39.648438 18.382812 C 39.824219 18.578125 39.972656 18.777344 40.089844 18.984375 C 40.144531 19.085938 40.109375 19.214844 40.007812 19.273438 C 39.972656 19.289062 39.9375 19.296875 39.902344 19.296875 "/>
</g>
<path style=" stroke:none;fill-rule:nonzero;fill:rgb(1.959229%,1.959229%,1.959229%);fill-opacity:1;" d="M 45.71875 6.035156 C 44.972656 6.035156 44.222656 5.964844 43.464844 5.78125 C 42.148438 5.460938 40.8125 5.042969 39.679688 4.675781 C 38.722656 4.363281 37.894531 3.871094 37.089844 3.390625 C 36.632812 3.121094 36.164062 2.84375 35.671875 2.597656 L 35.15625 2.339844 C 33.746094 1.632812 32.289062 0.90625 30.898438 0.0976562 C 30.800781 0.0351562 30.765625 -0.09375 30.824219 -0.191406 C 30.882812 -0.292969 31.011719 -0.328125 31.113281 -0.269531 C 32.488281 0.535156 33.941406 1.257812 35.34375 1.960938 L 35.859375 2.21875 C 36.367188 2.472656 36.84375 2.753906 37.304688 3.027344 C 38.125 3.515625 38.898438 3.976562 39.808594 4.273438 C 40.933594 4.636719 42.261719 5.050781 43.5625 5.371094 C 45.425781 5.820312 47.207031 5.558594 49.09375 5.28125 C 50.046875 5.140625 51.03125 4.996094 52.019531 4.953125 C 52.136719 4.945312 52.234375 5.039062 52.238281 5.15625 C 52.242188 5.269531 52.152344 5.371094 52.035156 5.375 C 51.070312 5.414062 50.097656 5.558594 49.152344 5.699219 C 48.03125 5.863281 46.882812 6.035156 45.71875 6.035156 "/>
<g clip-path="url(#clip4)" clip-rule="nonzero">
<path style=" stroke:none;fill-rule:nonzero;fill:rgb(1.959229%,1.959229%,1.959229%);fill-opacity:1;" d="M 23.992188 10.832031 C 23.972656 10.832031 23.953125 10.828125 23.933594 10.820312 C 23.820312 10.789062 23.757812 10.671875 23.792969 10.558594 C 25.007812 6.414062 27.722656 2.269531 30.875 -0.253906 C 30.964844 -0.324219 31.097656 -0.308594 31.171875 -0.21875 C 31.246094 -0.128906 31.230469 0.00390625 31.136719 0.078125 C 28.050781 2.550781 25.390625 6.609375 24.195312 10.679688 C 24.167969 10.769531 24.085938 10.832031 23.992188 10.832031 "/>
</g>
<g clip-path="url(#clip5)" clip-rule="nonzero">
<path style=" stroke:none;fill-rule:nonzero;fill:rgb(1.959229%,1.959229%,1.959229%);fill-opacity:1;" d="M 93.941406 13.503906 C 93.84375 13.503906 93.757812 13.4375 93.734375 13.339844 C 93.21875 10.957031 92.539062 8.398438 91.074219 5.824219 C 89.648438 3.316406 88.265625 1.546875 86.582031 0.0820312 C 86.492188 0.0078125 86.484375 -0.125 86.558594 -0.214844 C 86.636719 -0.304688 86.769531 -0.3125 86.859375 -0.234375 C 88.578125 1.261719 89.992188 3.066406 91.441406 5.613281 C 92.9375 8.238281 93.625 10.835938 94.148438 13.25 C 94.171875 13.363281 94.101562 13.476562 93.988281 13.5 C 93.972656 13.503906 93.957031 13.503906 93.941406 13.503906 "/>
</g>
<path style=" stroke:none;fill-rule:nonzero;fill:rgb(1.959229%,1.959229%,1.959229%);fill-opacity:1;" d="M 42.179688 23.261719 C 42.105469 23.261719 42.03125 23.222656 41.992188 23.152344 C 41.9375 23.050781 41.972656 22.921875 42.074219 22.867188 C 42.304688 22.738281 42.460938 22.515625 42.65625 22.179688 C 42.714844 22.078125 42.84375 22.042969 42.945312 22.101562 C 43.046875 22.15625 43.082031 22.285156 43.023438 22.386719 C 42.839844 22.710938 42.628906 23.042969 42.28125 23.234375 C 42.25 23.253906 42.214844 23.261719 42.179688 23.261719 "/>
<path style=" stroke:none;fill-rule:nonzero;fill:rgb(1.959229%,1.959229%,1.959229%);fill-opacity:1;" d="M 50.410156 30.015625 C 50.199219 30.015625 50.015625 29.972656 49.859375 29.882812 C 49.730469 29.804688 49.644531 29.699219 49.566406 29.605469 C 49.480469 29.496094 49.386719 29.386719 49.285156 29.273438 C 48.898438 28.839844 48.460938 28.351562 48.507812 27.753906 C 48.511719 27.667969 48.527344 27.582031 48.558594 27.492188 C 48.710938 27.011719 48.890625 26.554688 49.046875 26.171875 L 49.164062 25.886719 C 49.300781 25.546875 49.445312 25.195312 49.582031 24.839844 C 49.800781 24.253906 49.820312 23.664062 49.820312 23.007812 C 49.820312 22.894531 49.914062 22.796875 50.03125 22.796875 C 50.148438 22.796875 50.242188 22.894531 50.242188 23.007812 C 50.242188 23.707031 50.222656 24.335938 49.976562 24.988281 C 49.839844 25.351562 49.695312 25.703125 49.554688 26.046875 L 49.4375 26.332031 C 49.285156 26.707031 49.109375 27.152344 48.960938 27.625 C 48.941406 27.683594 48.929688 27.730469 48.929688 27.785156 C 48.898438 28.203125 49.269531 28.621094 49.597656 28.992188 C 49.703125 29.109375 49.804688 29.222656 49.890625 29.335938 C 49.953125 29.410156 50.011719 29.480469 50.074219 29.515625 C 50.332031 29.664062 50.925781 29.667969 52.285156 28.84375 C 52.382812 28.785156 52.515625 28.816406 52.574219 28.914062 C 52.636719 29.015625 52.605469 29.144531 52.503906 29.207031 C 51.609375 29.75 50.925781 30.015625 50.410156 30.015625 "/>
<path style=" stroke:none;fill-rule:nonzero;fill:rgb(1.959229%,1.959229%,1.959229%);fill-opacity:1;" d="M 53.3125 26.089844 C 53.195312 26.089844 53.101562 25.996094 53.101562 25.878906 L 53.101562 25.738281 C 53.097656 25.644531 53.097656 25.550781 53.101562 25.457031 C 53.101562 25.390625 53.101562 25.316406 53.097656 25.234375 C 53.039062 24.078125 52.511719 22.597656 51.636719 22.132812 C 51.554688 22.089844 51.472656 22.054688 51.378906 22.027344 C 51.195312 21.972656 51.027344 22.121094 50.8125 22.335938 L 50.773438 22.378906 C 50.636719 22.511719 50.53125 22.667969 50.417969 22.835938 C 50.351562 22.933594 50.28125 23.035156 50.203125 23.132812 C 50.199219 23.140625 50.195312 23.144531 50.1875 23.152344 C 50.105469 23.234375 49.96875 23.238281 49.886719 23.15625 C 49.804688 23.074219 49.796875 22.945312 49.878906 22.863281 C 49.945312 22.777344 50.003906 22.6875 50.070312 22.59375 C 50.1875 22.421875 50.3125 22.242188 50.472656 22.078125 L 50.515625 22.039062 C 50.730469 21.820312 51.058594 21.492188 51.5 21.621094 C 51.625 21.65625 51.734375 21.703125 51.839844 21.761719 C 52.976562 22.363281 53.46875 24.15625 53.519531 25.214844 C 53.523438 25.300781 53.523438 25.382812 53.523438 25.460938 C 53.519531 25.554688 53.523438 25.648438 53.523438 25.738281 L 53.523438 25.878906 C 53.523438 25.996094 53.429688 26.089844 53.3125 26.089844 "/>
<path style=" stroke:none;fill-rule:nonzero;fill:rgb(1.959229%,1.959229%,1.959229%);fill-opacity:1;" d="M 48.304688 28.132812 C 48.28125 28.132812 48.257812 28.128906 48.238281 28.121094 L 48.21875 28.113281 C 47.902344 28.007812 47.574219 27.949219 47.257812 27.894531 L 47.140625 27.871094 C 46.765625 27.804688 46.453125 27.734375 46.152344 27.609375 C 45.777344 27.453125 45.472656 27.226562 45.226562 26.921875 C 44.894531 26.507812 44.605469 25.984375 44.398438 25.40625 C 44.398438 25.402344 44.394531 25.402344 44.394531 25.398438 C 44.3125 25.179688 44.246094 24.957031 44.191406 24.730469 C 44.109375 24.378906 44.28125 23.976562 44.46875 23.601562 L 44.542969 23.453125 C 44.734375 23.054688 44.921875 22.648438 45.109375 22.242188 C 45.292969 21.851562 45.476562 21.460938 45.660156 21.070312 C 45.898438 20.578125 46.179688 19.929688 46.257812 19.253906 C 46.257812 19.25 46.257812 19.242188 46.257812 19.238281 C 46.257812 19.121094 46.355469 19.03125 46.46875 19.03125 C 46.585938 19.03125 46.679688 19.132812 46.679688 19.25 C 46.679688 19.261719 46.679688 19.277344 46.679688 19.289062 C 46.59375 20.039062 46.292969 20.734375 46.042969 21.253906 C 45.855469 21.640625 45.675781 22.03125 45.496094 22.421875 C 45.304688 22.828125 45.117188 23.238281 44.921875 23.640625 L 44.847656 23.789062 C 44.734375 24.015625 44.546875 24.398438 44.601562 24.632812 C 44.652344 24.839844 44.714844 25.050781 44.792969 25.253906 C 44.792969 25.257812 44.796875 25.261719 44.796875 25.265625 C 44.988281 25.800781 45.25 26.277344 45.554688 26.65625 C 45.761719 26.910156 46 27.085938 46.3125 27.21875 C 46.582031 27.328125 46.867188 27.390625 47.214844 27.457031 L 47.332031 27.476562 C 47.664062 27.535156 48.007812 27.597656 48.351562 27.714844 L 48.371094 27.71875 C 48.480469 27.757812 48.542969 27.875 48.503906 27.988281 C 48.472656 28.078125 48.390625 28.132812 48.304688 28.132812 "/>
<path style=" stroke:none;fill-rule:nonzero;fill:rgb(1.959229%,1.959229%,1.959229%);fill-opacity:1;" d="M 49.203125 26.464844 C 48.820312 26.464844 48.410156 26.269531 48.152344 26.082031 C 47.480469 25.601562 47.5625 24.976562 47.734375 24.429688 L 47.75 24.386719 C 47.839844 24.097656 47.949219 23.804688 48.050781 23.515625 C 48.273438 22.898438 48.503906 22.257812 48.617188 21.636719 C 48.726562 21.054688 48.410156 20.628906 48.046875 20.132812 L 47.972656 20.03125 C 47.929688 19.976562 47.890625 19.917969 47.851562 19.859375 C 47.671875 19.601562 47.519531 19.382812 47.246094 19.308594 C 46.996094 19.246094 46.777344 19.28125 46.597656 19.417969 C 46.515625 19.5 46.378906 19.5 46.296875 19.417969 C 46.214844 19.335938 46.210938 19.203125 46.292969 19.121094 C 46.308594 19.105469 46.328125 19.089844 46.34375 19.078125 C 46.625 18.867188 46.972656 18.804688 47.351562 18.898438 C 47.78125 19.011719 48.003906 19.335938 48.199219 19.621094 C 48.238281 19.675781 48.273438 19.730469 48.3125 19.78125 L 48.386719 19.882812 C 48.773438 20.40625 49.175781 20.949219 49.035156 21.714844 C 48.914062 22.371094 48.675781 23.027344 48.449219 23.660156 C 48.34375 23.957031 48.242188 24.234375 48.152344 24.515625 L 48.136719 24.5625 C 47.949219 25.164062 48.015625 25.460938 48.398438 25.738281 C 48.601562 25.886719 48.941406 26.050781 49.234375 26.039062 C 49.347656 26.03125 49.449219 26.125 49.453125 26.242188 C 49.457031 26.359375 49.367188 26.457031 49.25 26.464844 C 49.234375 26.464844 49.21875 26.464844 49.203125 26.464844 "/>
<path style=" stroke:none;fill-rule:nonzero;fill:rgb(1.959229%,1.959229%,1.959229%);fill-opacity:1;" d="M 48.285156 28.125 C 48.191406 28.125 48.109375 28.066406 48.082031 27.976562 C 48.046875 27.863281 48.109375 27.746094 48.222656 27.710938 L 48.285156 27.691406 C 48.402344 27.652344 48.523438 27.613281 48.644531 27.570312 C 48.753906 27.53125 48.875 27.589844 48.914062 27.699219 C 48.957031 27.808594 48.898438 27.929688 48.789062 27.96875 C 48.664062 28.015625 48.539062 28.054688 48.414062 28.097656 L 48.34375 28.117188 C 48.324219 28.125 48.304688 28.125 48.285156 28.125 "/>
<g clip-path="url(#clip6)" clip-rule="nonzero">
<path style=" stroke:none;fill-rule:nonzero;fill:rgb(1.959229%,1.959229%,1.959229%);fill-opacity:1;" d="M 54.328125 31.175781 C 53.667969 31.175781 53.097656 30.945312 52.625 30.484375 C 52.199219 30.070312 52.175781 29.535156 52.183594 29.019531 C 52.183594 28.960938 52.183594 28.894531 52.183594 28.828125 C 52.1875 28.761719 52.1875 28.695312 52.1875 28.632812 L 52.1875 28.421875 C 52.191406 28.007812 52.191406 27.621094 52.121094 27.230469 C 52.097656 27.113281 52.089844 27.003906 52.085938 26.902344 C 52.074219 26.757812 52.0625 26.621094 52.019531 26.484375 C 52.007812 26.449219 51.996094 26.414062 51.984375 26.382812 L 51.96875 26.339844 C 51.925781 26.230469 51.984375 26.109375 52.09375 26.070312 C 52.203125 26.03125 52.324219 26.085938 52.363281 26.195312 L 52.378906 26.234375 C 52.394531 26.273438 52.40625 26.3125 52.421875 26.351562 C 52.480469 26.535156 52.492188 26.707031 52.507812 26.867188 C 52.511719 26.964844 52.519531 27.058594 52.535156 27.152344 C 52.617188 27.582031 52.613281 28.007812 52.609375 28.421875 L 52.609375 28.632812 C 52.609375 28.699219 52.609375 28.765625 52.609375 28.832031 C 52.605469 28.898438 52.605469 28.960938 52.605469 29.023438 C 52.597656 29.484375 52.617188 29.886719 52.917969 30.179688 C 53.53125 30.777344 54.320312 30.90625 55.332031 30.574219 C 55.535156 30.507812 55.746094 30.425781 55.960938 30.324219 C 56.191406 30.21875 56.433594 30.089844 56.707031 29.929688 C 56.808594 29.871094 56.9375 29.90625 56.996094 30.007812 C 57.054688 30.109375 57.019531 30.238281 56.917969 30.296875 C 56.636719 30.464844 56.378906 30.597656 56.140625 30.707031 C 55.910156 30.816406 55.679688 30.90625 55.464844 30.976562 C 55.058594 31.109375 54.679688 31.175781 54.328125 31.175781 "/>
</g>
<path style=" stroke:none;fill-rule:nonzero;fill:rgb(1.959229%,1.959229%,1.959229%);fill-opacity:1;" d="M 52.167969 26.480469 C 52.089844 26.480469 52.019531 26.441406 51.980469 26.371094 C 51.925781 26.269531 51.960938 26.140625 52.0625 26.082031 C 52.300781 25.953125 52.574219 25.871094 52.789062 25.804688 C 52.972656 25.75 53.121094 25.707031 53.261719 25.671875 C 53.570312 25.597656 53.855469 25.550781 54.132812 25.535156 C 54.25 25.527344 54.351562 25.617188 54.359375 25.730469 C 54.363281 25.847656 54.277344 25.949219 54.160156 25.957031 C 53.90625 25.972656 53.648438 26.015625 53.363281 26.085938 C 53.226562 26.117188 53.085938 26.15625 52.914062 26.210938 C 52.660156 26.285156 52.453125 26.351562 52.269531 26.453125 C 52.234375 26.472656 52.199219 26.480469 52.167969 26.480469 "/>
<path style=" stroke:none;fill-rule:nonzero;fill:rgb(1.959229%,1.959229%,1.959229%);fill-opacity:1;" d="M 55.902344 29.609375 C 55.796875 29.609375 55.707031 29.535156 55.691406 29.425781 C 55.652344 29.128906 55.601562 28.886719 55.535156 28.664062 C 55.5 28.546875 55.46875 28.425781 55.433594 28.308594 C 55.289062 27.789062 55.136719 27.253906 54.839844 26.84375 C 54.742188 26.707031 54.628906 26.578125 54.511719 26.441406 C 54.429688 26.347656 54.351562 26.253906 54.273438 26.160156 C 54.203125 26.074219 54.121094 25.992188 54.015625 25.914062 C 53.925781 25.839844 53.90625 25.707031 53.980469 25.617188 C 54.050781 25.523438 54.183594 25.507812 54.277344 25.578125 C 54.40625 25.679688 54.511719 25.78125 54.601562 25.894531 C 54.675781 25.984375 54.753906 26.074219 54.832031 26.164062 C 54.949219 26.300781 55.074219 26.441406 55.183594 26.597656 C 55.523438 27.070312 55.683594 27.640625 55.839844 28.191406 C 55.875 28.308594 55.90625 28.425781 55.941406 28.542969 C 56.015625 28.785156 56.070312 29.050781 56.109375 29.371094 C 56.125 29.488281 56.042969 29.59375 55.929688 29.609375 C 55.917969 29.609375 55.910156 29.609375 55.902344 29.609375 "/>
<path style=" stroke:none;fill-rule:nonzero;fill:rgb(1.959229%,1.959229%,1.959229%);fill-opacity:1;" d="M 53.308594 25.4375 C 53.273438 25.4375 53.238281 25.425781 53.203125 25.410156 C 53.179688 25.394531 53.15625 25.382812 53.132812 25.363281 C 53.035156 25.300781 53.007812 25.167969 53.074219 25.070312 C 53.140625 24.972656 53.269531 24.949219 53.367188 25.011719 C 53.382812 25.023438 53.394531 25.03125 53.410156 25.039062 C 53.511719 25.097656 53.546875 25.226562 53.492188 25.328125 C 53.453125 25.398438 53.382812 25.4375 53.308594 25.4375 "/>
<path style=" stroke:none;fill-rule:nonzero;fill:rgb(1.959229%,1.959229%,1.959229%);fill-opacity:1;" d="M 56.851562 30.300781 Z M 56.863281 30.316406 Z M 57.019531 30.386719 C 56.960938 30.386719 56.902344 30.363281 56.859375 30.3125 C 56.851562 30.308594 56.84375 30.308594 56.839844 30.304688 C 56.816406 30.296875 56.792969 30.289062 56.773438 30.277344 C 56.722656 30.257812 56.671875 30.230469 56.613281 30.195312 C 56.425781 30.082031 56.28125 29.988281 56.144531 29.890625 C 56.039062 29.8125 55.945312 29.726562 55.855469 29.644531 L 55.800781 29.59375 C 55.789062 29.582031 55.785156 29.574219 55.777344 29.570312 C 55.6875 29.5 55.667969 29.367188 55.738281 29.273438 C 55.804688 29.183594 55.929688 29.160156 56.023438 29.226562 C 56.046875 29.246094 56.074219 29.269531 56.09375 29.289062 L 56.144531 29.335938 C 56.226562 29.410156 56.304688 29.484375 56.390625 29.546875 C 56.519531 29.636719 56.65625 29.726562 56.835938 29.835938 C 56.871094 29.855469 56.902344 29.871094 56.945312 29.890625 C 56.953125 29.894531 56.960938 29.898438 56.96875 29.902344 C 56.972656 29.902344 56.980469 29.90625 56.988281 29.910156 C 57.035156 29.925781 57.125 29.960938 57.1875 30.050781 C 57.257812 30.140625 57.238281 30.273438 57.148438 30.34375 C 57.109375 30.375 57.0625 30.386719 57.019531 30.386719 "/>
<g clip-path="url(#clip7)" clip-rule="nonzero">
<path style=" stroke:none;fill-rule:nonzero;fill:rgb(39.99939%,0%,0%);fill-opacity:1;" d="M 60.851562 31.660156 C 60.667969 31.660156 60.480469 31.632812 60.289062 31.570312 C 59.816406 31.414062 59.320312 31.082031 58.84375 30.761719 C 58.527344 30.550781 58.230469 30.351562 57.953125 30.207031 C 57.816406 30.132812 57.652344 30.058594 57.46875 29.984375 C 57.359375 29.9375 57.308594 29.816406 57.351562 29.707031 C 57.394531 29.597656 57.519531 29.546875 57.628906 29.589844 C 57.824219 29.671875 58 29.753906 58.148438 29.832031 C 58.445312 29.984375 58.769531 30.199219 59.078125 30.410156 C 59.53125 30.714844 60.003906 31.03125 60.421875 31.167969 C 61.089844 31.390625 61.726562 31.039062 62.398438 30.667969 C 62.847656 30.417969 63.3125 30.164062 63.816406 30.058594 C 63.929688 30.035156 64.042969 30.105469 64.066406 30.21875 C 64.089844 30.335938 64.019531 30.449219 63.902344 30.472656 C 63.460938 30.566406 63.023438 30.804688 62.605469 31.039062 C 62.046875 31.34375 61.472656 31.660156 60.851562 31.660156 "/>
</g>
<path style=" stroke:none;fill-rule:nonzero;fill:rgb(39.99939%,0%,0%);fill-opacity:1;" d="M 64.351562 30.585938 C 64.15625 30.585938 63.96875 30.542969 63.777344 30.460938 C 63.535156 30.355469 63.292969 30.1875 63 29.972656 C 61.3125 28.714844 59.414062 27.574219 57.742188 26.570312 C 57.640625 26.511719 57.609375 26.378906 57.667969 26.28125 C 57.726562 26.179688 57.859375 26.148438 57.957031 26.207031 C 59.640625 27.21875 61.546875 28.363281 63.253906 29.632812 C 63.484375 29.804688 63.726562 29.976562 63.945312 30.070312 C 64.269531 30.210938 64.578125 30.222656 65.269531 29.875 C 66.085938 29.464844 66.953125 28.902344 67.582031 28.375 C 67.671875 28.300781 67.804688 28.3125 67.878906 28.402344 C 67.953125 28.492188 67.941406 28.625 67.855469 28.699219 C 67.199219 29.246094 66.304688 29.828125 65.457031 30.253906 C 65.011719 30.476562 64.667969 30.585938 64.351562 30.585938 "/>
<path style=" stroke:none;fill-rule:nonzero;fill:rgb(39.99939%,0%,0%);fill-opacity:1;" d="M 68.714844 28.898438 C 68.355469 28.898438 67.996094 28.847656 67.65625 28.738281 C 67.375 28.65625 67.121094 28.535156 66.90625 28.382812 C 66.199219 27.882812 65.542969 27.132812 64.847656 26.335938 C 63.761719 25.09375 62.640625 23.808594 61.320312 23.515625 C 61.207031 23.492188 61.132812 23.378906 61.160156 23.261719 C 61.183594 23.148438 61.296875 23.078125 61.414062 23.101562 C 62.867188 23.425781 64.035156 24.761719 65.164062 26.054688 C 65.84375 26.832031 66.484375 27.566406 67.148438 28.039062 C 67.328125 28.164062 67.539062 28.261719 67.777344 28.335938 C 68.613281 28.59375 69.617188 28.480469 70.28125 28.046875 C 70.378906 27.984375 70.507812 28.007812 70.574219 28.109375 C 70.636719 28.207031 70.609375 28.335938 70.511719 28.402344 C 70.011719 28.726562 69.367188 28.898438 68.714844 28.898438 "/>
<path style=" stroke:none;fill-rule:nonzero;fill:rgb(39.99939%,0%,0%);fill-opacity:1;" d="M 70.378906 28.46875 C 70.34375 28.46875 70.304688 28.460938 70.269531 28.441406 C 70.171875 28.378906 70.136719 28.25 70.199219 28.148438 C 70.199219 28.144531 70.203125 28.136719 70.203125 28.132812 C 70.8125 26.832031 70.847656 26.753906 70.035156 25.683594 L 69.953125 25.574219 C 69.339844 24.773438 68.652344 24.015625 68 23.316406 C 67.90625 23.214844 67.800781 23.109375 67.691406 22.996094 C 66.785156 22.042969 65.546875 20.742188 65.644531 19.574219 C 65.65625 19.457031 65.757812 19.371094 65.875 19.382812 C 65.988281 19.390625 66.078125 19.492188 66.066406 19.609375 C 65.984375 20.589844 67.195312 21.859375 67.996094 22.703125 C 68.109375 22.816406 68.214844 22.925781 68.308594 23.027344 C 68.96875 23.734375 69.664062 24.503906 70.289062 25.316406 L 70.371094 25.425781 C 71.3125 26.664062 71.230469 26.929688 70.585938 28.3125 C 70.582031 28.328125 70.574219 28.347656 70.5625 28.367188 C 70.519531 28.433594 70.453125 28.46875 70.378906 28.46875 "/>
<path style=" stroke:none;fill-rule:nonzero;fill:rgb(39.99939%,0%,0%);fill-opacity:1;" d="M 73.171875 23.863281 C 73.144531 23.863281 73.121094 23.859375 73.09375 23.851562 C 72.917969 23.78125 72.75 23.703125 72.582031 23.613281 C 71.917969 23.257812 71.28125 22.75 70.664062 22.257812 C 70.101562 21.808594 69.570312 21.378906 69.070312 21.117188 C 68.984375 21.074219 68.871094 21.011719 68.738281 20.9375 C 68.054688 20.558594 66.628906 19.773438 65.863281 19.804688 C 65.742188 19.8125 65.648438 19.71875 65.644531 19.601562 C 65.640625 19.484375 65.730469 19.386719 65.847656 19.378906 C 66.726562 19.339844 68.167969 20.136719 68.941406 20.566406 C 69.074219 20.640625 69.183594 20.699219 69.265625 20.746094 C 69.800781 21.023438 70.347656 21.460938 70.929688 21.925781 C 71.527344 22.40625 72.148438 22.902344 72.78125 23.238281 C 72.9375 23.324219 73.089844 23.394531 73.246094 23.453125 C 73.355469 23.496094 73.410156 23.621094 73.371094 23.730469 C 73.335938 23.8125 73.257812 23.863281 73.171875 23.863281 "/>
<path style=" stroke:none;fill-rule:nonzero;fill:rgb(39.99939%,0%,0%);fill-opacity:1;" d="M 70.121094 25.65625 C 70.046875 25.65625 69.980469 25.621094 69.9375 25.554688 C 69.878906 25.453125 69.910156 25.324219 70.011719 25.265625 C 70.347656 25.0625 70.71875 24.804688 71.117188 24.492188 C 71.574219 24.132812 72.066406 23.710938 72.535156 23.269531 C 72.621094 23.191406 72.757812 23.191406 72.835938 23.277344 C 72.917969 23.359375 72.917969 23.488281 72.835938 23.570312 C 72.835938 23.570312 72.828125 23.578125 72.824219 23.582031 C 72.347656 24.027344 71.847656 24.457031 71.375 24.828125 C 70.964844 25.148438 70.578125 25.417969 70.230469 25.625 C 70.195312 25.648438 70.15625 25.65625 70.121094 25.65625 "/>
<path style=" stroke:none;fill-rule:nonzero;fill:rgb(39.99939%,0%,0%);fill-opacity:1;" d="M 72.242188 25.054688 C 71.871094 25.054688 71.527344 24.996094 71.167969 24.855469 C 71.058594 24.816406 71.007812 24.691406 71.050781 24.582031 C 71.089844 24.472656 71.214844 24.421875 71.324219 24.460938 C 72.019531 24.734375 72.664062 24.65625 73.691406 24.410156 C 73.917969 24.355469 74.179688 24.328125 74.457031 24.300781 C 74.941406 24.25 75.445312 24.195312 75.726562 23.992188 C 76.226562 23.636719 76.378906 22.835938 76.1875 21.617188 C 76.132812 21.285156 76.054688 20.925781 75.949219 20.523438 C 75.921875 20.410156 75.988281 20.292969 76.101562 20.265625 C 76.214844 20.234375 76.328125 20.304688 76.359375 20.414062 C 76.46875 20.832031 76.546875 21.203125 76.601562 21.550781 C 76.824219 22.941406 76.613281 23.878906 75.976562 24.335938 C 75.597656 24.605469 75.039062 24.664062 74.5 24.71875 C 74.238281 24.746094 73.988281 24.773438 73.789062 24.820312 C 73.191406 24.964844 72.699219 25.054688 72.242188 25.054688 "/>
<path style=" stroke:none;fill-rule:nonzero;fill:rgb(39.99939%,0%,0%);fill-opacity:1;" d="M 76.15625 20.679688 C 76.117188 20.679688 76.078125 20.671875 76.042969 20.648438 L 75.710938 20.4375 C 74.816406 19.871094 73.972656 19.335938 73.257812 18.742188 C 69.203125 15.398438 64.886719 12.621094 61.207031 10.347656 C 60.179688 9.714844 59.285156 9.40625 58.261719 9.136719 C 57.953125 9.054688 57.59375 8.90625 57.214844 8.746094 C 56.875 8.601562 56.519531 8.453125 56.1875 8.351562 C 56.078125 8.316406 56.015625 8.195312 56.046875 8.085938 C 56.082031 7.972656 56.203125 7.910156 56.3125 7.945312 C 56.664062 8.054688 57.027344 8.207031 57.378906 8.355469 C 57.746094 8.507812 58.089844 8.652344 58.371094 8.726562 C 59.429688 9.007812 60.359375 9.328125 61.425781 9.988281 C 65.121094 12.269531 69.449219 15.054688 73.527344 18.417969 C 74.222656 18.992188 75.054688 19.519531 75.9375 20.082031 L 76.269531 20.292969 C 76.367188 20.355469 76.394531 20.484375 76.332031 20.582031 C 76.292969 20.648438 76.226562 20.679688 76.15625 20.679688 "/>
<path style=" stroke:none;fill-rule:nonzero;fill:rgb(39.99939%,0%,0%);fill-opacity:1;" d="M 76.394531 21.792969 C 76.351562 21.792969 76.308594 21.78125 76.273438 21.753906 C 76.175781 21.6875 76.152344 21.554688 76.222656 21.460938 C 76.382812 21.234375 76.570312 21.023438 76.796875 20.820312 C 77.03125 20.601562 77.289062 20.40625 77.535156 20.214844 C 77.945312 19.902344 78.328125 19.605469 78.632812 19.222656 C 79.019531 18.738281 79.101562 18.019531 79.128906 17.449219 C 79.144531 17.160156 79.144531 16.855469 79.144531 16.5625 C 79.148438 15.910156 79.152344 15.238281 79.296875 14.675781 C 79.328125 14.5625 79.445312 14.496094 79.558594 14.527344 C 79.667969 14.554688 79.738281 14.671875 79.707031 14.785156 C 79.574219 15.292969 79.570312 15.910156 79.570312 16.5625 C 79.566406 16.863281 79.566406 17.167969 79.550781 17.46875 C 79.519531 18.101562 79.425781 18.90625 78.964844 19.484375 C 78.628906 19.910156 78.203125 20.234375 77.792969 20.550781 C 77.554688 20.734375 77.304688 20.925781 77.082031 21.132812 C 76.875 21.316406 76.707031 21.503906 76.566406 21.707031 C 76.527344 21.761719 76.460938 21.792969 76.394531 21.792969 "/>
<path style=" stroke:none;fill-rule:nonzero;fill:rgb(39.99939%,0%,0%);fill-opacity:1;" d="M 76.921875 5.164062 C 76.832031 5.164062 76.75 5.105469 76.71875 5.015625 C 76.683594 4.90625 76.746094 4.785156 76.859375 4.75 C 77.492188 4.546875 78.046875 4.34375 78.554688 4.128906 C 81.832031 2.730469 84.835938 0.964844 87.34375 -0.582031 C 87.441406 -0.644531 87.574219 -0.613281 87.632812 -0.511719 C 87.695312 -0.414062 87.664062 -0.285156 87.566406 -0.222656 C 85.042969 1.332031 82.023438 3.109375 78.71875 4.515625 C 78.203125 4.738281 77.632812 4.945312 76.988281 5.152344 C 76.964844 5.160156 76.945312 5.164062 76.921875 5.164062 "/>
<g clip-path="url(#clip8)" clip-rule="nonzero">
<path style=" stroke:none;fill-rule:nonzero;fill:rgb(39.99939%,0%,0%);fill-opacity:1;" d="M 79.339844 17.671875 C 79.269531 17.671875 79.199219 17.632812 79.160156 17.566406 C 79.097656 17.464844 79.132812 17.335938 79.230469 17.277344 C 79.753906 16.964844 80.300781 16.707031 80.660156 16.539062 L 80.710938 16.515625 C 81.339844 16.214844 81.996094 16.082031 82.628906 15.949219 C 82.863281 15.902344 83.109375 15.851562 83.347656 15.792969 C 83.878906 15.664062 84.414062 15.539062 84.949219 15.410156 C 88.152344 14.648438 91.464844 13.863281 94.605469 12.765625 C 94.714844 12.730469 94.835938 12.785156 94.875 12.898438 C 94.914062 13.007812 94.855469 13.128906 94.746094 13.167969 C 91.585938 14.269531 88.261719 15.058594 85.046875 15.824219 C 84.511719 15.949219 83.976562 16.074219 83.445312 16.203125 C 83.199219 16.261719 82.953125 16.3125 82.714844 16.363281 C 82.078125 16.496094 81.476562 16.621094 80.890625 16.898438 L 80.839844 16.921875 C 80.488281 17.089844 79.953125 17.339844 79.449219 17.640625 C 79.414062 17.660156 79.378906 17.671875 79.339844 17.671875 "/>
</g>
<path style=" stroke:none;fill-rule:nonzero;fill:rgb(39.99939%,0%,0%);fill-opacity:1;" d="M 73.339844 4.671875 C 73.273438 4.671875 73.210938 4.640625 73.167969 4.585938 C 73.101562 4.492188 73.117188 4.359375 73.210938 4.289062 C 73.605469 3.992188 74.847656 2.964844 74.324219 2.199219 C 74.210938 2.039062 73.996094 1.949219 73.648438 1.921875 C 73.53125 1.914062 73.445312 1.8125 73.453125 1.695312 C 73.460938 1.578125 73.566406 1.492188 73.679688 1.5 C 74.160156 1.539062 74.480469 1.6875 74.671875 1.960938 C 75.175781 2.695312 74.738281 3.667969 73.464844 4.628906 C 73.429688 4.65625 73.382812 4.671875 73.339844 4.671875 "/>
<path style=" stroke:none;fill-rule:nonzero;fill:rgb(39.99939%,0%,0%);fill-opacity:1;" d="M 47.34375 12.609375 C 46.515625 12.609375 45.597656 12.453125 45.019531 11.980469 C 44.890625 11.875 44.78125 11.753906 44.691406 11.625 C 44.628906 11.53125 44.652344 11.398438 44.75 11.332031 C 44.84375 11.265625 44.976562 11.289062 45.042969 11.386719 C 45.109375 11.484375 45.191406 11.574219 45.289062 11.652344 C 46.019531 12.253906 47.589844 12.265625 48.472656 12.082031 C 49.773438 11.808594 50.679688 11.214844 51.816406 10.402344 C 52.980469 9.566406 54.363281 8.789062 56.160156 7.957031 C 56.269531 7.90625 56.394531 7.953125 56.441406 8.058594 C 56.492188 8.164062 56.445312 8.289062 56.339844 8.339844 C 54.566406 9.160156 53.207031 9.925781 52.0625 10.746094 C 50.882812 11.585938 49.941406 12.207031 48.558594 12.496094 C 48.226562 12.5625 47.796875 12.609375 47.34375 12.609375 "/>
<path style=" stroke:none;fill-rule:nonzero;fill:rgb(39.99939%,0%,0%);fill-opacity:1;" d="M 76.921875 5.164062 C 76.917969 5.164062 76.914062 5.164062 76.910156 5.164062 C 75.914062 5.113281 74.992188 5.007812 74.097656 4.839844 C 73.851562 4.792969 73.585938 4.738281 73.289062 4.664062 C 73.171875 4.636719 73.050781 4.609375 72.929688 4.578125 C 72.476562 4.472656 72.011719 4.359375 71.542969 4.285156 C 68.347656 3.777344 65.019531 3.441406 61.652344 3.277344 C 61.058594 3.25 60.453125 3.1875 59.871094 3.132812 L 59.746094 3.117188 C 58.914062 3.035156 58.046875 2.953125 57.222656 2.953125 C 56.328125 2.953125 55.4375 3.1875 54.671875 3.402344 C 54.5625 3.4375 54.445312 3.371094 54.410156 3.257812 C 54.378906 3.144531 54.445312 3.027344 54.558594 2.996094 C 55.351562 2.773438 56.273438 2.53125 57.21875 2.527344 C 58.070312 2.527344 58.945312 2.613281 59.789062 2.699219 L 59.914062 2.710938 C 60.492188 2.765625 61.089844 2.828125 61.671875 2.855469 C 65.054688 3.019531 68.398438 3.359375 71.609375 3.867188 C 72.09375 3.945312 72.570312 4.058594 73.027344 4.167969 C 73.148438 4.195312 73.265625 4.226562 73.386719 4.253906 C 73.679688 4.324219 73.9375 4.378906 74.175781 4.425781 C 75.050781 4.589844 75.953125 4.691406 76.933594 4.742188 C 77.050781 4.746094 77.140625 4.84375 77.132812 4.960938 C 77.128906 5.074219 77.035156 5.164062 76.921875 5.164062 "/>
<path style=" stroke:none;fill-rule:nonzero;fill:rgb(39.99939%,0%,0%);fill-opacity:1;" d="M 59.78125 3.121094 C 59.699219 3.121094 59.625 3.074219 59.589844 2.996094 C 59.539062 2.890625 59.589844 2.765625 59.695312 2.71875 C 60.292969 2.453125 60.800781 2.289062 61.296875 2.203125 C 62.398438 2.019531 63.5625 2.046875 64.691406 2.074219 C 65.082031 2.082031 65.484375 2.089844 65.875 2.089844 C 66.214844 2.089844 66.632812 2.105469 67.121094 2.125 C 69.035156 2.199219 71.925781 2.308594 73.574219 1.519531 C 73.679688 1.46875 73.804688 1.515625 73.855469 1.621094 C 73.90625 1.726562 73.859375 1.851562 73.753906 1.902344 C 72.015625 2.734375 69.058594 2.621094 67.101562 2.546875 C 66.621094 2.53125 66.207031 2.515625 65.875 2.515625 C 65.480469 2.515625 65.074219 2.503906 64.679688 2.496094 C 63.574219 2.46875 62.429688 2.441406 61.367188 2.621094 C 60.902344 2.703125 60.4375 2.851562 59.867188 3.105469 C 59.839844 3.117188 59.808594 3.121094 59.78125 3.121094 "/>
<path style=" stroke:none;fill-rule:nonzero;fill:rgb(39.99939%,0%,0%);fill-opacity:1;" d="M 45.222656 23.464844 C 45.183594 23.464844 45.140625 23.453125 45.105469 23.429688 C 44.667969 23.132812 44.25 22.789062 43.847656 22.453125 C 43.710938 22.34375 43.578125 22.230469 43.441406 22.121094 C 43.363281 22.058594 43.289062 21.996094 43.210938 21.9375 C 43.117188 21.863281 43.101562 21.730469 43.171875 21.640625 C 43.246094 21.546875 43.378906 21.53125 43.46875 21.601562 C 43.550781 21.664062 43.632812 21.726562 43.710938 21.792969 C 43.84375 21.902344 43.980469 22.015625 44.117188 22.128906 C 44.511719 22.453125 44.921875 22.792969 45.34375 23.078125 C 45.4375 23.140625 45.464844 23.273438 45.398438 23.371094 C 45.359375 23.429688 45.292969 23.464844 45.222656 23.464844 "/>
<path style=" stroke:none;fill-rule:nonzero;fill:rgb(39.99939%,0%,0%);fill-opacity:1;" d="M 42.914062 22.9375 C 42.894531 22.9375 42.875 22.933594 42.859375 22.929688 C 41.082031 22.449219 40.878906 21.238281 40.664062 19.957031 C 40.601562 19.585938 40.539062 19.199219 40.433594 18.816406 C 40.371094 18.578125 40.292969 18.351562 40.199219 18.148438 C 40.152344 18.039062 40.199219 17.914062 40.308594 17.867188 C 40.414062 17.820312 40.539062 17.867188 40.585938 17.976562 C 40.6875 18.199219 40.773438 18.445312 40.84375 18.707031 C 40.953125 19.109375 41.019531 19.503906 41.082031 19.886719 C 41.292969 21.128906 41.457031 22.109375 42.96875 22.519531 C 43.082031 22.550781 43.148438 22.667969 43.117188 22.78125 C 43.09375 22.875 43.007812 22.9375 42.914062 22.9375 "/>
<path style=" stroke:none;fill-rule:nonzero;fill:rgb(39.99939%,0%,0%);fill-opacity:1;" d="M 43.230469 22.640625 C 43.226562 22.640625 43.226562 22.640625 43.226562 22.640625 C 43.109375 22.636719 43.015625 22.542969 43.019531 22.425781 C 43.050781 21.089844 42.632812 19.707031 41.925781 18.820312 C 41.542969 18.34375 40.9375 17.957031 40.507812 18.238281 C 40.460938 18.269531 40.421875 18.300781 40.382812 18.34375 C 40.304688 18.429688 40.167969 18.4375 40.082031 18.355469 C 39.996094 18.277344 39.992188 18.144531 40.070312 18.058594 C 40.136719 17.988281 40.207031 17.929688 40.28125 17.882812 C 40.929688 17.457031 41.742188 17.914062 42.253906 18.558594 C 43.019531 19.519531 43.476562 21.003906 43.441406 22.433594 C 43.4375 22.550781 43.34375 22.640625 43.230469 22.640625 "/>
<path style=" stroke:none;fill-rule:nonzero;fill:rgb(39.99939%,0%,0%);fill-opacity:1;" d="M 44.867188 11.71875 C 44.847656 11.71875 44.828125 11.714844 44.804688 11.707031 C 44.695312 11.675781 44.628906 11.554688 44.664062 11.445312 C 44.675781 11.40625 44.691406 11.367188 44.710938 11.332031 C 44.933594 10.875 45.261719 10.761719 45.582031 10.648438 C 45.714844 10.601562 45.855469 10.554688 45.988281 10.476562 C 46.613281 10.121094 47.1875 9.613281 47.738281 9.121094 C 48.035156 8.859375 48.335938 8.589844 48.648438 8.34375 C 49.597656 7.585938 50.496094 6.71875 51.363281 5.878906 C 51.773438 5.484375 52.195312 5.074219 52.617188 4.683594 C 52.621094 4.679688 52.628906 4.671875 52.636719 4.664062 C 52.636719 4.664062 52.644531 4.65625 52.648438 4.65625 C 53.277344 4.074219 53.878906 3.546875 54.480469 3.039062 C 54.566406 2.964844 54.703125 2.976562 54.777344 3.066406 C 54.851562 3.152344 54.839844 3.289062 54.75 3.363281 C 54.152344 3.863281 53.558594 4.390625 52.933594 4.964844 C 52.933594 4.96875 52.925781 4.976562 52.917969 4.984375 C 52.914062 4.984375 52.90625 4.992188 52.90625 4.992188 C 52.484375 5.382812 52.0625 5.789062 51.65625 6.183594 C 50.78125 7.027344 49.878906 7.902344 48.914062 8.671875 C 48.609375 8.914062 48.308594 9.179688 48.019531 9.4375 C 47.449219 9.941406 46.863281 10.464844 46.199219 10.84375 C 46.03125 10.941406 45.867188 11 45.722656 11.050781 C 45.441406 11.148438 45.238281 11.21875 45.089844 11.519531 C 45.082031 11.535156 45.074219 11.550781 45.070312 11.570312 C 45.042969 11.660156 44.957031 11.71875 44.867188 11.71875 "/>
<g clip-path="url(#clip9)" clip-rule="nonzero">
<path style=" stroke:none;fill-rule:nonzero;fill:rgb(39.99939%,0%,0%);fill-opacity:1;" d="M 40.636719 18.972656 C 40.5625 18.972656 40.492188 18.933594 40.453125 18.863281 C 40.355469 18.6875 40.226562 18.511719 40.070312 18.34375 C 39.433594 17.667969 38.453125 17.191406 37.589844 16.773438 C 37.457031 16.707031 37.328125 16.644531 37.203125 16.582031 C 34.910156 15.445312 32.628906 14.214844 30.484375 13.046875 C 28.648438 12.046875 26.691406 11.285156 24.796875 10.546875 L 24.652344 10.488281 C 24.542969 10.445312 24.488281 10.324219 24.53125 10.214844 C 24.574219 10.105469 24.695312 10.050781 24.804688 10.09375 L 24.949219 10.152344 C 26.855469 10.894531 28.828125 11.664062 30.6875 12.675781 C 32.824219 13.839844 35.105469 15.070312 37.390625 16.203125 C 37.515625 16.265625 37.644531 16.328125 37.773438 16.390625 C 38.671875 16.828125 39.691406 17.320312 40.382812 18.058594 C 40.558594 18.25 40.707031 18.453125 40.824219 18.65625 C 40.878906 18.757812 40.84375 18.886719 40.742188 18.945312 C 40.710938 18.964844 40.671875 18.972656 40.636719 18.972656 "/>
</g>
<path style=" stroke:none;fill-rule:nonzero;fill:rgb(39.99939%,0%,0%);fill-opacity:1;" d="M 46.453125 5.707031 C 45.707031 5.707031 44.957031 5.636719 44.199219 5.453125 C 42.882812 5.132812 41.546875 4.714844 40.414062 4.347656 C 39.457031 4.035156 38.628906 3.542969 37.824219 3.066406 C 37.367188 2.796875 36.898438 2.515625 36.40625 2.269531 L 35.890625 2.011719 C 34.480469 1.308594 33.023438 0.578125 31.632812 -0.230469 C 31.535156 -0.289062 31.5 -0.417969 31.558594 -0.519531 C 31.617188 -0.621094 31.746094 -0.65625 31.847656 -0.597656 C 33.222656 0.207031 34.675781 0.933594 36.078125 1.632812 L 36.59375 1.890625 C 37.101562 2.144531 37.578125 2.425781 38.039062 2.703125 C 38.859375 3.1875 39.632812 3.648438 40.546875 3.945312 C 41.667969 4.308594 42.996094 4.726562 44.296875 5.042969 C 46.160156 5.496094 47.941406 5.230469 49.828125 4.953125 C 50.78125 4.8125 51.765625 4.667969 52.753906 4.625 C 52.871094 4.621094 52.96875 4.710938 52.972656 4.828125 C 52.976562 4.945312 52.886719 5.042969 52.769531 5.046875 C 51.804688 5.089844 50.832031 5.234375 49.890625 5.371094 C 48.765625 5.539062 47.617188 5.707031 46.453125 5.707031 "/>
<g clip-path="url(#clip10)" clip-rule="nonzero">
<path style=" stroke:none;fill-rule:nonzero;fill:rgb(39.99939%,0%,0%);fill-opacity:1;" d="M 24.726562 10.503906 C 24.707031 10.503906 24.6875 10.5 24.667969 10.496094 C 24.554688 10.460938 24.492188 10.34375 24.527344 10.234375 C 25.742188 6.085938 28.457031 1.945312 31.609375 -0.578125 C 31.699219 -0.652344 31.832031 -0.636719 31.90625 -0.546875 C 31.980469 -0.453125 31.964844 -0.320312 31.875 -0.25 C 28.785156 2.222656 26.125 6.285156 24.929688 10.351562 C 24.902344 10.445312 24.820312 10.503906 24.726562 10.503906 "/>
</g>
<g clip-path="url(#clip11)" clip-rule="nonzero">
<path style=" stroke:none;fill-rule:nonzero;fill:rgb(39.99939%,0%,0%);fill-opacity:1;" d="M 94.675781 13.179688 C 94.578125 13.179688 94.492188 13.109375 94.46875 13.011719 C 93.953125 10.632812 93.273438 8.074219 91.808594 5.496094 C 90.382812 2.992188 89 1.222656 87.316406 -0.242188 C 87.226562 -0.320312 87.21875 -0.453125 87.296875 -0.542969 C 87.371094 -0.628906 87.503906 -0.640625 87.59375 -0.5625 C 89.3125 0.933594 90.726562 2.738281 92.175781 5.285156 C 93.671875 7.914062 94.359375 10.507812 94.882812 12.921875 C 94.90625 13.035156 94.835938 13.148438 94.722656 13.171875 C 94.707031 13.175781 94.691406 13.179688 94.675781 13.179688 "/>
</g>
<path style=" stroke:none;fill-rule:nonzero;fill:rgb(39.99939%,0%,0%);fill-opacity:1;" d="M 42.914062 22.9375 C 42.839844 22.9375 42.765625 22.898438 42.730469 22.828125 C 42.671875 22.726562 42.707031 22.597656 42.8125 22.539062 C 43.039062 22.410156 43.199219 22.191406 43.390625 21.851562 C 43.449219 21.75 43.578125 21.714844 43.679688 21.773438 C 43.78125 21.832031 43.816406 21.960938 43.757812 22.0625 C 43.574219 22.382812 43.363281 22.714844 43.015625 22.910156 C 42.984375 22.925781 42.949219 22.9375 42.914062 22.9375 "/>
<path style=" stroke:none;fill-rule:nonzero;fill:rgb(39.99939%,0%,0%);fill-opacity:1;" d="M 51.144531 29.691406 C 50.933594 29.691406 50.75 29.644531 50.59375 29.554688 C 50.464844 29.480469 50.378906 29.371094 50.304688 29.28125 C 50.214844 29.167969 50.121094 29.0625 50.019531 28.945312 C 49.632812 28.515625 49.195312 28.023438 49.242188 27.429688 C 49.246094 27.339844 49.261719 27.253906 49.292969 27.167969 C 49.445312 26.683594 49.625 26.226562 49.78125 25.84375 L 49.898438 25.5625 C 50.035156 25.21875 50.183594 24.867188 50.316406 24.511719 C 50.535156 23.925781 50.554688 23.335938 50.554688 22.683594 C 50.554688 22.566406 50.648438 22.472656 50.765625 22.472656 C 50.882812 22.472656 50.976562 22.566406 50.976562 22.683594 C 50.976562 23.378906 50.957031 24.007812 50.710938 24.664062 C 50.574219 25.023438 50.429688 25.378906 50.289062 25.722656 L 50.171875 26.003906 C 50.019531 26.378906 49.847656 26.824219 49.695312 27.300781 C 49.675781 27.355469 49.664062 27.40625 49.664062 27.457031 C 49.632812 27.878906 50.003906 28.296875 50.332031 28.664062 C 50.4375 28.785156 50.539062 28.894531 50.625 29.007812 C 50.6875 29.085938 50.746094 29.152344 50.808594 29.191406 C 51.066406 29.335938 51.660156 29.34375 53.019531 28.519531 C 53.121094 28.457031 53.25 28.488281 53.308594 28.589844 C 53.371094 28.6875 53.339844 28.820312 53.238281 28.878906 C 52.34375 29.421875 51.660156 29.691406 51.144531 29.691406 "/>
<path style=" stroke:none;fill-rule:nonzero;fill:rgb(39.99939%,0%,0%);fill-opacity:1;" d="M 54.046875 25.765625 C 53.929688 25.765625 53.835938 25.671875 53.835938 25.550781 L 53.835938 25.414062 C 53.832031 25.320312 53.832031 25.226562 53.835938 25.132812 C 53.835938 25.0625 53.835938 24.988281 53.832031 24.910156 C 53.773438 23.75 53.246094 22.269531 52.371094 21.808594 C 52.289062 21.761719 52.207031 21.726562 52.113281 21.699219 C 51.929688 21.648438 51.761719 21.796875 51.546875 22.011719 L 51.507812 22.050781 C 51.371094 22.183594 51.265625 22.339844 51.152344 22.507812 C 51.085938 22.605469 51.015625 22.707031 50.941406 22.804688 C 50.933594 22.8125 50.929688 22.820312 50.921875 22.824219 C 50.839844 22.90625 50.703125 22.910156 50.621094 22.828125 C 50.539062 22.75 50.53125 22.621094 50.613281 22.535156 C 50.679688 22.449219 50.738281 22.363281 50.804688 22.269531 C 50.921875 22.09375 51.046875 21.914062 51.207031 21.753906 L 51.25 21.710938 C 51.464844 21.496094 51.792969 21.164062 52.234375 21.292969 C 52.359375 21.332031 52.46875 21.375 52.574219 21.433594 C 53.710938 22.039062 54.203125 23.832031 54.253906 24.886719 C 54.257812 24.972656 54.257812 25.058594 54.257812 25.136719 C 54.257812 25.230469 54.257812 25.320312 54.257812 25.410156 L 54.257812 25.550781 C 54.257812 25.671875 54.164062 25.765625 54.046875 25.765625 "/>
<path style=" stroke:none;fill-rule:nonzero;fill:rgb(39.99939%,0%,0%);fill-opacity:1;" d="M 49.039062 27.804688 C 49.015625 27.804688 48.992188 27.800781 48.972656 27.792969 L 48.953125 27.789062 C 48.636719 27.679688 48.308594 27.621094 47.992188 27.566406 L 47.875 27.546875 C 47.5 27.476562 47.191406 27.40625 46.886719 27.28125 C 46.511719 27.125 46.207031 26.902344 45.960938 26.59375 C 45.628906 26.179688 45.339844 25.65625 45.132812 25.078125 C 45.132812 25.078125 45.132812 25.074219 45.128906 25.070312 C 45.046875 24.851562 44.980469 24.628906 44.925781 24.402344 C 44.84375 24.050781 45.015625 23.652344 45.203125 23.273438 L 45.277344 23.125 C 45.46875 22.726562 45.65625 22.324219 45.847656 21.917969 C 46.027344 21.527344 46.210938 21.132812 46.394531 20.746094 C 46.632812 20.253906 46.914062 19.601562 46.992188 18.929688 C 46.992188 18.921875 46.992188 18.914062 46.992188 18.914062 C 46.992188 18.796875 47.089844 18.703125 47.203125 18.703125 C 47.320312 18.703125 47.414062 18.804688 47.414062 18.921875 C 47.414062 18.9375 47.414062 18.949219 47.414062 18.960938 C 47.328125 19.710938 47.027344 20.40625 46.777344 20.929688 C 46.589844 21.316406 46.410156 21.707031 46.230469 22.09375 C 46.039062 22.503906 45.851562 22.910156 45.65625 23.3125 L 45.582031 23.460938 C 45.46875 23.6875 45.28125 24.070312 45.335938 24.304688 C 45.386719 24.515625 45.449219 24.722656 45.527344 24.925781 C 45.527344 24.929688 45.53125 24.933594 45.53125 24.9375 C 45.722656 25.472656 45.984375 25.953125 46.289062 26.328125 C 46.496094 26.582031 46.734375 26.761719 47.046875 26.890625 C 47.316406 27 47.601562 27.066406 47.949219 27.128906 L 48.066406 27.148438 C 48.398438 27.210938 48.742188 27.269531 49.085938 27.386719 L 49.105469 27.394531 C 49.214844 27.429688 49.277344 27.550781 49.238281 27.660156 C 49.210938 27.75 49.125 27.804688 49.039062 27.804688 "/>
<path style=" stroke:none;fill-rule:nonzero;fill:rgb(39.99939%,0%,0%);fill-opacity:1;" d="M 49.9375 26.136719 C 49.554688 26.136719 49.144531 25.941406 48.886719 25.753906 C 48.214844 25.273438 48.296875 24.652344 48.46875 24.105469 L 48.484375 24.058594 C 48.574219 23.773438 48.683594 23.476562 48.785156 23.191406 C 49.007812 22.570312 49.238281 21.929688 49.351562 21.3125 C 49.460938 20.726562 49.144531 20.300781 48.78125 19.808594 L 48.707031 19.707031 C 48.664062 19.648438 48.625 19.589844 48.585938 19.53125 C 48.410156 19.277344 48.253906 19.054688 47.980469 18.984375 C 47.730469 18.917969 47.511719 18.953125 47.332031 19.089844 C 47.25 19.171875 47.113281 19.175781 47.03125 19.09375 C 46.949219 19.011719 46.945312 18.878906 47.027344 18.792969 C 47.042969 18.777344 47.0625 18.765625 47.078125 18.75 C 47.359375 18.539062 47.707031 18.476562 48.085938 18.574219 C 48.515625 18.683594 48.738281 19.007812 48.933594 19.292969 C 48.972656 19.347656 49.007812 19.402344 49.046875 19.457031 L 49.121094 19.558594 C 49.507812 20.082031 49.910156 20.621094 49.769531 21.386719 C 49.648438 22.042969 49.410156 22.699219 49.183594 23.332031 C 49.078125 23.628906 48.976562 23.910156 48.886719 24.191406 L 48.871094 24.234375 C 48.683594 24.839844 48.75 25.136719 49.132812 25.410156 C 49.335938 25.558594 49.679688 25.722656 49.96875 25.714844 C 50.082031 25.707031 50.183594 25.796875 50.1875 25.914062 C 50.191406 26.03125 50.101562 26.128906 49.984375 26.136719 C 49.96875 26.136719 49.953125 26.136719 49.9375 26.136719 "/>
<path style=" stroke:none;fill-rule:nonzero;fill:rgb(39.99939%,0%,0%);fill-opacity:1;" d="M 49.019531 27.800781 C 48.925781 27.800781 48.84375 27.742188 48.816406 27.648438 C 48.78125 27.535156 48.84375 27.417969 48.957031 27.386719 L 49.019531 27.363281 C 49.136719 27.328125 49.257812 27.289062 49.378906 27.246094 C 49.488281 27.207031 49.609375 27.261719 49.648438 27.375 C 49.691406 27.484375 49.632812 27.605469 49.523438 27.644531 C 49.398438 27.6875 49.273438 27.730469 49.148438 27.769531 L 49.078125 27.789062 C 49.058594 27.796875 49.039062 27.800781 49.019531 27.800781 "/>
<path style=" stroke:none;fill-rule:nonzero;fill:rgb(39.99939%,0%,0%);fill-opacity:1;" d="M 55.0625 30.847656 C 54.402344 30.847656 53.832031 30.617188 53.359375 30.15625 C 52.933594 29.742188 52.910156 29.207031 52.917969 28.695312 C 52.917969 28.632812 52.917969 28.566406 52.917969 28.5 C 52.921875 28.433594 52.921875 28.371094 52.921875 28.304688 L 52.921875 28.09375 C 52.925781 27.683594 52.925781 27.292969 52.855469 26.902344 C 52.835938 26.785156 52.828125 26.679688 52.820312 26.574219 C 52.808594 26.429688 52.796875 26.292969 52.753906 26.15625 C 52.742188 26.121094 52.730469 26.089844 52.71875 26.054688 L 52.703125 26.015625 C 52.664062 25.90625 52.71875 25.785156 52.828125 25.742188 C 52.9375 25.703125 53.058594 25.761719 53.097656 25.871094 L 53.113281 25.910156 C 53.128906 25.945312 53.140625 25.988281 53.15625 26.027344 C 53.214844 26.210938 53.226562 26.378906 53.242188 26.542969 C 53.246094 26.640625 53.253906 26.730469 53.269531 26.828125 C 53.351562 27.257812 53.347656 27.683594 53.34375 28.097656 L 53.34375 28.304688 C 53.34375 28.371094 53.34375 28.441406 53.34375 28.507812 C 53.339844 28.570312 53.339844 28.636719 53.339844 28.699219 C 53.332031 29.15625 53.351562 29.558594 53.652344 29.855469 C 54.265625 30.449219 55.054688 30.578125 56.066406 30.25 C 56.269531 30.183594 56.480469 30.097656 56.695312 29.996094 C 56.925781 29.890625 57.167969 29.765625 57.441406 29.605469 C 57.542969 29.546875 57.671875 29.582031 57.730469 29.679688 C 57.789062 29.78125 57.753906 29.910156 57.652344 29.96875 C 57.371094 30.136719 57.113281 30.269531 56.875 30.382812 C 56.644531 30.488281 56.414062 30.578125 56.199219 30.648438 C 55.792969 30.78125 55.414062 30.847656 55.0625 30.847656 "/>
<path style=" stroke:none;fill-rule:nonzero;fill:rgb(39.99939%,0%,0%);fill-opacity:1;" d="M 52.902344 26.152344 C 52.828125 26.152344 52.753906 26.113281 52.714844 26.042969 C 52.660156 25.941406 52.695312 25.8125 52.796875 25.757812 C 53.035156 25.625 53.308594 25.542969 53.523438 25.476562 C 53.707031 25.421875 53.855469 25.382812 53.996094 25.347656 C 54.304688 25.269531 54.589844 25.226562 54.867188 25.207031 C 54.984375 25.199219 55.085938 25.289062 55.09375 25.40625 C 55.101562 25.523438 55.011719 25.621094 54.894531 25.628906 C 54.640625 25.644531 54.382812 25.6875 54.097656 25.757812 C 53.964844 25.792969 53.820312 25.832031 53.648438 25.882812 C 53.394531 25.960938 53.1875 26.027344 53.003906 26.128906 C 52.96875 26.144531 52.933594 26.152344 52.902344 26.152344 "/>
<path style=" stroke:none;fill-rule:nonzero;fill:rgb(39.99939%,0%,0%);fill-opacity:1;" d="M 56.636719 29.285156 C 56.53125 29.285156 56.441406 29.207031 56.425781 29.101562 C 56.386719 28.800781 56.335938 28.558594 56.269531 28.335938 C 56.234375 28.21875 56.203125 28.101562 56.167969 27.980469 C 56.023438 27.460938 55.871094 26.929688 55.574219 26.515625 C 55.476562 26.378906 55.363281 26.25 55.246094 26.113281 C 55.164062 26.023438 55.085938 25.929688 55.007812 25.832031 C 54.9375 25.746094 54.855469 25.667969 54.75 25.585938 C 54.660156 25.515625 54.644531 25.382812 54.714844 25.289062 C 54.785156 25.195312 54.917969 25.179688 55.011719 25.25 C 55.140625 25.351562 55.246094 25.453125 55.335938 25.566406 C 55.410156 25.660156 55.488281 25.75 55.566406 25.835938 C 55.683594 25.976562 55.808594 26.117188 55.917969 26.269531 C 56.257812 26.742188 56.417969 27.3125 56.574219 27.867188 C 56.609375 27.984375 56.640625 28.101562 56.675781 28.214844 C 56.75 28.457031 56.804688 28.722656 56.84375 29.042969 C 56.859375 29.160156 56.777344 29.265625 56.664062 29.28125 C 56.652344 29.285156 56.644531 29.285156 56.636719 29.285156 "/>
<path style=" stroke:none;fill-rule:nonzero;fill:rgb(39.99939%,0%,0%);fill-opacity:1;" d="M 54.042969 25.109375 C 54.007812 25.109375 53.972656 25.101562 53.9375 25.082031 C 53.914062 25.070312 53.890625 25.054688 53.867188 25.039062 C 53.769531 24.972656 53.742188 24.84375 53.808594 24.746094 C 53.875 24.648438 54.003906 24.621094 54.101562 24.6875 C 54.117188 24.695312 54.128906 24.703125 54.144531 24.710938 C 54.246094 24.769531 54.28125 24.898438 54.226562 25 C 54.1875 25.070312 54.117188 25.109375 54.042969 25.109375 "/>
<path style=" stroke:none;fill-rule:nonzero;fill:rgb(39.99939%,0%,0%);fill-opacity:1;" d="M 57.585938 29.976562 Z M 57.597656 29.988281 Z M 57.753906 30.0625 C 57.695312 30.0625 57.636719 30.035156 57.59375 29.988281 C 57.585938 29.984375 57.582031 29.980469 57.574219 29.976562 C 57.550781 29.96875 57.527344 29.960938 57.507812 29.949219 C 57.457031 29.929688 57.40625 29.90625 57.347656 29.871094 C 57.160156 29.757812 57.015625 29.660156 56.878906 29.5625 C 56.773438 29.488281 56.679688 29.402344 56.589844 29.320312 L 56.535156 29.269531 C 56.523438 29.253906 56.519531 29.25 56.511719 29.242188 C 56.421875 29.171875 56.402344 29.039062 56.472656 28.949219 C 56.539062 28.855469 56.664062 28.835938 56.757812 28.898438 C 56.785156 28.917969 56.808594 28.941406 56.828125 28.960938 L 56.878906 29.007812 C 56.960938 29.085938 57.042969 29.160156 57.125 29.21875 C 57.253906 29.3125 57.390625 29.402344 57.570312 29.507812 C 57.605469 29.53125 57.636719 29.546875 57.679688 29.5625 C 57.6875 29.566406 57.695312 29.570312 57.703125 29.574219 C 57.707031 29.578125 57.714844 29.578125 57.722656 29.582031 C 57.769531 29.601562 57.859375 29.636719 57.925781 29.722656 C 57.992188 29.816406 57.972656 29.949219 57.882812 30.019531 C 57.84375 30.046875 57.800781 30.0625 57.753906 30.0625 "/>
</g>
</svg>
